PathFileType	4	(X/Y/Z)	C:/Users/opensim2020/Desktop/walking_exp_matlab/subject03_walking13_straight_04.trc	
DataRate	CameraRate	NumFrames	NumMarkers	Units	OrigDataRate	OrigDataStartFrame	OrigNumFrames	
100.00	100.00	7	46	mm	100.00	2262	200	
Frame#	Time	LFHD			RFHD			LBHD			RBHD			C7			T10			CLAV			STRN			RBAK			LSHO			LUPA			LELB			LFRM			LWRA			LWRB			LFIN			RSHO			RUPA			RELB			RFRM			RWRA			RWRB			RFIN			LASI			RASI			LPSI			RPSI			LTHI			LKNE			LTIB			LANK			LHEE			LTOE			RTHI			RKNE			RTIB			RANK			RHEE			RTOE			*39			*40			*41			*42			*43			*44			*45			
		X1	Y1	Z1	X2	Y2	Z2	X3	Y3	Z3	X4	Y4	Z4	X5	Y5	Z5	X6	Y6	Z6	X7	Y7	Z7	X8	Y8	Z8	X9	Y9	Z9	X10	Y10	Z10	X11	Y11	Z11	X12	Y12	Z12	X13	Y13	Z13	X14	Y14	Z14	X15	Y15	Z15	X16	Y16	Z16	X17	Y17	Z17	X18	Y18	Z18	X19	Y19	Z19	X20	Y20	Z20	X21	Y21	Z21	X22	Y22	Z22	X23	Y23	Z23	X24	Y24	Z24	X25	Y25	Z25	X26	Y26	Z26	X27	Y27	Z27	X28	Y28	Z28	X29	Y29	Z29	X30	Y30	Z30	X31	Y31	Z31	X32	Y32	Z32	X33	Y33	Z33	X34	Y34	Z34	X35	Y35	Z35	X36	Y36	Z36	X37	Y37	Z37	X38	Y38	Z38	X39	Y39	Z39	X40	Y40	Z40	X41	Y41	Z41	X42	Y42	Z42	X43	Y43	Z43	X44	Y44	Z44	X45	Y45	Z45	X46	Y46	Z46	

101	1.000	1498.90576	149.74977	1615.10815	1366.88013	163.47897	1623.23975	1506.32654	281.04752	1583.44055	1375.66528	289.73987	1590.65979	1447.59460	326.68338	1417.49426	1447.74329	343.26001	1099.82483	1436.85669	202.57541	1346.98865	1437.78491	148.84816	1186.08691	1352.09583	376.17828	1235.53979	1596.07947	238.77406	1378.87378	1665.36438	225.79730	1180.35791	1674.70068	211.09528	1057.66248	1671.88159	182.20576	930.08795	1641.54407	171.90172	810.40393	1696.86047	180.21582	818.16589	1687.28711	168.60727	734.19238	1281.05762	263.61035	1369.44275	1208.88867	237.91049	1148.25159	1198.01221	204.49501	1039.98413	1199.58826	161.03941	910.24365	1237.62231	110.33959	825.67743	1195.49268	141.63515	811.34167	1208.39014	103.44897	747.70172	1557.55981	160.09950	951.31085	1320.29041	176.12442	944.46539	1518.47290	326.02988	963.53998	1369.27344	334.38660	962.44934	1594.85071	190.49820	643.00000	1546.76746	178.38078	469.23740	1549.12512	238.73917	276.97861	1503.38916	276.82312	71.93507	1468.72900	322.05441	38.49176	1470.30627	128.14836	35.19220	1275.85620	169.24210	646.19775	1295.05029	102.92997	479.06998	1294.84326	232.38965	341.51382	1337.35278	380.01596	185.37729	1393.43042	431.02927	186.54631	1343.89941	303.74863	64.79981																					 
102	1.010	1498.62207	137.38348	1615.24109	1366.58142	151.28346	1623.16797	1506.27551	268.84671	1584.07385	1375.62415	277.86115	1591.24048	1447.82068	315.30609	1418.09814	1448.14661	331.77844	1100.34888	1437.01147	191.22269	1347.45874	1438.34131	137.34271	1186.61597	1352.57385	364.81262	1235.98560	1596.09875	227.39418	1379.73950	1665.87366	211.67004	1181.98413	1675.17737	193.85696	1059.67029	1671.64331	161.15077	933.01331	1640.64905	146.95918	813.96997	1695.95532	155.38589	821.19019	1686.17236	140.00621	738.12244	1281.27136	252.58083	1369.61536	1209.07861	229.32274	1148.11450	1198.41797	197.37285	1039.36267	1200.01343	156.48135	908.86084	1238.14282	107.24252	823.12708	1196.01624	138.87914	809.45831	1208.79712	101.91829	744.87567	1558.68579	149.33469	951.34052	1321.36157	163.69525	945.78375	1518.29602	314.84839	963.90302	1369.02148	322.34113	963.39551	1594.67786	184.37000	642.90405	1546.93140	175.07120	468.77170	1549.02844	237.21063	277.19104	1503.30872	276.74142	72.32612	1468.65552	322.37558	39.30502	1470.37585	128.11865	35.14026	1276.25000	152.79376	648.41345	1296.95996	83.41908	482.47470	1296.26587	207.35788	339.41089	1338.45996	347.83865	176.62474	1394.17224	399.46362	174.64825	1344.92578	264.37427	61.36609																					 
103	1.020	1498.29187	125.23876	1615.12219	1366.28381	139.19057	1623.00073	1506.27930	256.69559	1584.57532	1375.43933	266.02271	1591.59265	1447.91016	303.76993	1418.30701	1448.47266	320.28265	1100.65967	1437.20740	179.74907	1347.66870	1438.93616	125.81319	1186.90564	1353.16650	353.50772	1236.34949	1596.11658	216.18391	1380.43079	1666.49988	197.73480	1183.46667	1675.70166	177.01100	1061.59387	1671.40405	140.19783	936.09741	1639.63794	121.77642	817.94244	1694.92517	130.49437	824.44031	1684.76099	111.56444	742.39081	1281.52869	241.43784	1369.54041	1209.29370	220.69888	1147.76721	1198.76135	190.28897	1038.50598	1200.48242	151.65620	907.21234	1238.60901	104.48282	820.46185	1196.18372	136.00087	807.62286	1209.12646	100.56602	742.12787	1559.75867	138.64558	951.18549	1322.44360	151.31480	946.66101	1518.12085	303.72485	964.10504	1368.76404	310.29004	964.08813	1594.50989	178.30795	642.70227	1547.10596	171.91412	468.29504	1548.89465	235.82310	277.45862	1502.98010	276.44803	72.37352	1468.35474	321.78632	39.59375	1470.42456	128.06241	35.07899	1276.33862	137.55057	650.70782	1298.96619	64.50606	485.52274	1297.52307	182.27823	336.90463	1339.65283	314.75824	167.01591	1395.30920	366.53568	161.93634	1345.97021	224.69229	57.59106																					 
104	1.030	1497.99719	112.93122	1614.99854	1365.96033	127.09765	1622.60986	1506.21448	244.50856	1584.93127	1375.34082	254.05331	1591.67859	1447.92529	292.06036	1418.36926	1448.71252	308.75040	1100.77832	1437.42358	168.24881	1347.55469	1439.63599	114.28684	1186.88831	1353.60669	341.93216	1236.34021	1596.16846	204.86487	1380.88867	1667.15857	183.93759	1184.73511	1676.36548	160.14124	1063.41919	1671.29688	119.20029	939.25793	1638.66626	96.13665	822.36536	1693.74280	105.73402	827.83600	1683.13000	83.10458	747.00488	1281.76648	230.06557	1369.28381	1209.59924	211.90294	1147.19495	1199.02209	183.21831	1037.46619	1200.87915	146.92349	905.47174	1238.86084	101.44926	817.73737	1196.64624	133.36584	805.38275	1209.33289	99.31737	739.30786	1560.74939	127.98013	950.75159	1323.14514	138.89131	947.14606	1517.68323	292.62296	963.91968	1368.48572	298.30072	964.47351	1594.28052	171.92479	642.39893	1547.26868	168.89824	467.70758	1548.78638	234.50612	277.73209	1502.95850	276.71329	72.98919	1467.91223	321.46637	39.91002	1470.51501	127.87518	35.24849	1277.05396	121.04685	652.07660	1300.98779	46.25325	488.34027	1299.06152	157.38766	333.93048	1341.18591	280.66049	157.20311	1396.77344	332.38171	148.73906	1347.27039	184.01518	53.81333																					 
105	1.040	1497.63232	100.58124	1614.66907	1365.59326	115.06699	1622.03088	1506.18848	232.35675	1585.11938	1375.35425	242.01718	1591.68066	1448.05212	280.39084	1418.29883	1448.94922	297.15485	1100.67346	1437.82397	156.82515	1347.35449	1440.35608	102.81342	1186.59119	1354.23450	330.35461	1236.13489	1596.25720	193.50923	1381.12231	1667.82458	170.34013	1185.77747	1677.12329	143.53966	1065.10425	1671.20752	98.46049	942.44189	1637.57312	70.74818	827.03754	1692.53845	81.01001	831.40192	1681.37817	54.88991	751.88776	1282.02026	218.55205	1368.81848	1209.91467	202.96059	1146.39551	1199.38403	176.04247	1036.23962	1201.22876	142.24498	903.52533	1239.22754	98.49033	814.93280	1196.69446	130.60281	803.39429	1209.61230	97.64978	736.47937	1561.70972	117.40009	950.14954	1324.08521	126.65775	947.35974	1517.27515	281.57874	963.72314	1368.12683	286.33264	964.50366	1594.07483	165.30801	641.95532	1547.51929	165.50745	467.34506	1548.53979	233.23747	278.06165	1502.67603	276.60651	73.50474	1467.54443	321.35455	40.62611	1470.60449	127.74337	35.20856	1279.68091	105.44320	653.13300	1302.92834	28.69527	490.81689	1300.69189	132.45828	330.43759	1342.76929	245.88896	146.88438	1398.37854	296.53284	134.85646	1348.68958	142.74724	50.27363																					 
106	1.050	1497.18042	88.46466	1614.17505	1365.22656	103.04888	1621.34436	1506.09216	220.23686	1585.12402	1375.18494	230.11667	1591.33093	1448.19031	268.66653	1418.11755	1449.00012	285.54395	1100.35144	1438.04639	144.95708	1346.84790	1441.18518	91.13081	1186.16138	1354.86340	318.66437	1235.63171	1596.35645	182.24538	1381.02393	1668.62793	156.80038	1186.60974	1677.93176	127.36086	1066.54736	1671.12292	77.95693	945.69757	1636.30005	45.77435	831.83887	1691.19141	56.54466	835.12042	1679.46863	26.98375	757.04126	1282.23621	206.74661	1367.98987	1210.27881	193.80847	1145.40430	1199.76611	168.68430	1034.86035	1201.61292	137.46541	901.50275	1239.72034	95.64377	812.01282	1196.98572	127.80971	801.11511	1209.67676	96.20802	733.72894	1562.61938	106.94341	949.37402	1324.82556	114.25354	947.46307	1516.61340	270.73245	963.31757	1367.60303	274.37640	964.17120	1593.80579	158.67181	641.47156	1547.54724	162.43791	466.73880	1548.31677	231.88707	278.39120	1502.40076	276.46600	73.96014	1467.21497	321.51682	41.65533	1470.80261	127.65212	35.39983	1279.59973	89.07169	655.06628	1304.79504	11.79953	492.93661	1302.25500	107.76779	326.47031	1344.69495	209.91313	136.32404	1400.31775	260.94391	121.60366	1350.41516	100.74177	47.13274																					 
107	1.060	1496.85156	76.18096	1613.70691	1364.77588	91.04840	1620.49182	1505.83618	207.90134	1584.89063	1375.15393	218.21275	1590.86792	1448.34619	256.93240	1417.74817	1449.01123	273.93060	1099.79114	1438.38733	133.26888	1346.23450	1441.92969	79.58039	1185.44910	1355.52222	306.94043	1234.96692	1596.50806	170.81062	1380.80920	1669.39880	143.25555	1187.17700	1678.86670	110.86485	1067.92322	1671.10754	57.47287	948.91107	1634.94482	20.88945	836.66394	1689.82336	32.11961	838.97125	1677.28882	-0.72304	762.31226	1282.41638	194.80927	1367.10608	1210.61060	184.57417	1144.20044	1200.09778	161.19598	1033.26697	1202.00122	132.55675	899.31165	1240.01819	92.76873	808.90051	1197.19604	124.96635	798.77979	1209.62805	94.58799	730.92505	1563.48315	96.51406	948.40723	1325.51257	101.78345	947.26031	1515.94104	259.95624	962.65045	1367.02380	262.40659	963.62579	1593.44995	152.18750	640.92944	1547.57007	159.06827	466.26370	1548.08594	230.17323	278.71341	1502.14880	276.30209	74.42985	1466.78308	321.38507	42.40936	1470.70288	127.57722	35.28880	1279.63684	74.10426	655.61597	1306.64636	-3.98691	494.45016	1303.61511	83.05909	322.17767	1346.41248	173.27892	126.15046	1402.25452	222.86852	108.16319	1352.17542	58.38359	44.62124																					 
